<?xml version="1.0" encoding="utf-8"?>
<svg viewBox="0 0 500 500" xmlns="http://www.w3.org/2000/svg">
  <text style="fill: rgb(144, 186, 231); font-family: Silom; font-size: 58px; white-space: pre;" transform="matrix(1, 0, 0, 1, -41.45256042480469, 132.43905639648438)"><tspan x="267.095" y="109.508">SBIR</tspan><tspan x="267.095" dy="1em">​</tspan><tspan>Gen</tspan></text>
  <g id="SVGRepo_bgCarrier" stroke-width="0" transform="matrix(0.37159398198127747, 0, 0, 0.36105799674987793, 13.817822456359856, 144.17431640625)" style=""/>
  <g id="SVGRepo_tracerCarrier" stroke-linecap="round" stroke-linejoin="round" transform="matrix(0.37159398198127747, 0, 0, 0.36105799674987793, 13.817822456359856, 144.17431640625)" style=""/>
  <g id="SVGRepo_iconCarrier" transform="matrix(0.37159398198127747, 0, 0, 0.36105799674987793, 13.817822456359856, 144.17431640625)" style="">
    <g>
      <path class="st0" d="M255.9,7.4c-66.4,0-128.8,25.8-175.7,72.8C33.2,127.1,7.4,189.5,7.4,255.9c0,66.4,25.8,128.8,72.8,175.7 c46.9,46.9,109.3,72.8,175.7,72.8s128.8-25.8,175.7-72.8c46.9-46.9,72.8-109.3,72.8-175.7c0-66.4-25.8-128.8-72.8-175.7 C384.7,33.2,322.3,7.4,255.9,7.4z M381.1,120.1c-19.4-17.9-41.9-31.2-67.1-39.5c-1-0.3-2.1-0.7-3.1-1l12.6-47.1 c33.4,10.1,65.1,27.8,92.1,53.1L381.1,120.1z M355.8,264.1c-7.4-7.4-7.4-19.5,0-26.9c7.4-7.4,19.5-7.4,26.9,0 c7.4,7.4,7.4,19.5,0,26.9C375.3,271.6,363.2,271.6,355.8,264.1z M345.2,226.6c-13.3,13.3-13.3,34.9,0,48.1 c3.8,3.8,8.3,6.5,13.1,8.1c-4.1,15.7-11.7,30.1-22.4,42.4l-69.4-69.4l69.4-69.4c8.5,9.8,15.1,21,19.5,33.1 C351.7,221.3,348.2,223.6,345.2,226.6z M415.6,426.2c-27,25.4-58.6,43.1-92.1,53.1l-12.6-47c25.8-8,49.8-21.7,70.2-40.6 L415.6,426.2z M307,417.8l-12.7-47.2c15-5,29.1-13,41.6-24l34.5,34.5C352,398,330.3,410.4,307,417.8z M242.3,425 c-0.5-7.6-3.6-15-9.4-20.8c-2.3-2.3-4.8-4.1-7.5-5.6l6.5-24.2c15.8,3.2,32.2,3.2,48,0l12.7,47.2C276.3,425.2,259.4,426.3,242.3,425 z M90.4,219.6l46.9,12.8c-3.1,15.9-3,32.2,0.2,48.1l-47.1,12.3C85.2,268.7,85.2,243.7,90.4,219.6z M232.2,242.8l-76.6-20.9 c4.3-12.7,11.1-24.8,20.3-35.4L232.2,242.8z M255.9,284.9l20.1,75c-13.3,2.5-26.9,2.5-40.2,0L255.9,284.9z M221.3,356 c-12.5-4.3-24.4-11-34.8-20.1l54.9-54.9L221.3,356z M270.4,281l54.9,54.9c-10.5,9.1-22.3,15.8-34.8,20.1L270.4,281z M325.3,175.8 l-54.9,54.9l20.1-75C303,160,314.8,166.7,325.3,175.8z M255.9,226.9l-20.1-75c13.3-2.5,26.9-2.5,40.2,0L255.9,226.9z M241.4,230.8 l-54.9-54.9c10.5-9.1,22.3-15.8,34.8-20.1L241.4,230.8z M175.8,165.2l-34.5-34.5c12.9-11.8,27.4-21.5,43.2-28.8 c1.1,1.6,2.3,3.2,3.8,4.6c6.1,6.1,14.2,9.1,22.2,9l6.9,25.8C202.4,146.2,188.3,154.2,175.8,165.2z M221.2,95.9 c-6.2,6.2-16.2,6.1-22.3,0c-6.1-6.1-6.1-16.2,0-22.3c6.2-6.2,16.2-6.1,22.3,0C227.3,79.7,227.3,89.7,221.2,95.9z M188.3,63 c-6.8,6.8-9.7,15.9-8.9,24.8c-17.9,8.1-34.2,19-48.7,32.3L96.2,85.6c27-25.4,58.6-43.1,92.1-53.1l6.8,25.4 C192.6,59.2,190.3,60.9,188.3,63z M120.1,130.7c-18.8,20.3-32.5,44.4-40.6,70.4l-47.1-12.8c10.1-33.5,27.8-65.1,53.1-92.1 L120.1,130.7z M130.7,141.3l34.5,34.5c-11.1,12.6-19.2,26.9-24.2,42.1l-46.9-12.8C101.4,181.9,113.5,160,130.7,141.3z M151.8,236.4 l75.4,20.6L152,276.7C149.4,263.4,149.3,249.7,151.8,236.4z M229.2,271.9l-53.4,53.4c-8.9-10.3-15.6-21.9-19.9-34.1L229.2,271.9z M175.8,346.5c12.4,11,26.6,19,41.6,24l-6.5,24.2c-8.6-0.2-17.2,2.9-23.8,9.4c-1.6,1.6-2.9,3.3-4.1,5 c-15.2-7.2-29.2-16.6-41.7-28.1L175.8,346.5z M130.7,391.7c14.1,13,29.9,23.6,47.2,31.6c-1.1,9.5,2,19.3,9.2,26.6 c2.3,2.3,4.8,4.1,7.5,5.6l-6.4,23.8c-33.4-10.1-65.1-27.8-92.1-53.1L130.7,391.7z M197.7,439.3c-6.8-6.8-6.8-17.8,0-24.5 c6.8-6.8,17.8-6.8,24.5,0c6.8,6.8,6.8,17.8,0,24.5C215.5,446.1,204.5,446.1,197.7,439.3z M335.9,165.2c-29.2-25.8-68-35.1-104-27.8 l-6.9-25.8c2.4-1.4,4.7-3.1,6.8-5.1c5.4-5.4,8.4-12.4,8.9-19.6c47.9-4.3,94.5,11.4,129.8,43.8L335.9,165.2z M309,28.6l-12.6,47.1 c-19.1-4.2-38.8-5.5-58.3-3.6c-1.5-3.3-3.6-6.4-6.3-9.1c-6.1-6.1-14.2-9.1-22.2-9l-6.8-25.4C237.7,20.5,274.1,20.5,309,28.6z M28.6,202.8l47.1,12.8c-2.4,10.7-3.8,21.8-4.3,32.9c-1.7,44,12.1,86.7,38.9,121.1l10.7-10.7c-12.1-15.8-21-33.3-26.7-51.6 l47.1-12.4c5,14.7,12.9,28.7,23.8,41l-79.7,79.7C30.5,356.9,11.5,276.5,28.6,202.8z M202.7,483.2l6.4-23.8 c8.6,0.2,17.2-2.9,23.8-9.4c3-3,5.3-6.4,6.8-10.1c19.3,1.7,38.3,0.4,56.7-3.7l12.6,47C274.1,491.3,237.7,491.3,202.7,483.2z M426.2,415.6l-34.5-34.5c4.6-5,9-10.3,13-15.7l-12.1-8.9c-3.6,4.8-7.4,9.5-11.5,14l-34.5-34.5c13-14.8,22.2-32.3,26.8-51.5 c7.3-0.9,14.4-4.1,20-9.7c13.3-13.3,13.3-34.9,0-48.1c-6.4-6.4-14.7-9.7-23.1-9.9c-5.1-15-13.2-28.9-23.7-40.9l34.5-34.5 c43.3,47.3,56.3,115.5,33.1,175.8l14,5.4c25.4-65.9,11-140.3-36.5-191.8l34.5-34.5C510.3,185.8,510.3,326,426.2,415.6z" style="fill: rgb(162, 196, 215);"/>
      <path class="st0" d="M400.8,344.3l12.8,7.8c2.8-4.6,5.5-9.4,7.9-14.3l-13.4-6.6C405.8,335.7,403.3,340.1,400.8,344.3z" style="fill: rgb(162, 196, 215);"/>
      <rect class="st0" height="67.3" transform="matrix(0.7071 -0.7071 0.7071 0.7071 98.4288 353.1655)" width="15" x="468" y="24.1" style="fill: rgb(162, 196, 215);"/>
      <rect class="st0" height="15" transform="matrix(0.7071 -0.7071 0.7071 0.7071 114.8757 313.4545)" width="15" x="428.3" y="10.6" style="fill: rgb(162, 196, 215);"/>
      <rect class="st0" height="67.3" transform="matrix(0.7071 -0.7071 0.7071 0.7071 -319.3255 180.1261)" width="15" x="50.3" y="441.9" style="fill: rgb(162, 196, 215);"/>
      <rect class="st0" height="15" transform="matrix(0.7071 -0.7071 0.7071 0.7071 -302.8704 140.4089)" width="15" x="10.6" y="428.3" style="fill: rgb(162, 196, 215);"/>
      <circle class="st1" cx="369.3" cy="250.7" r="19" style="fill: rgb(229, 248, 255);"/>
      <circle class="st1" cx="210" cy="427" r="17.3" style="fill: rgb(229, 248, 255);"/>
      <circle class="st1" cx="210" cy="84.7" r="15.8" style="fill: rgb(229, 248, 255);"/>
    </g>
  </g>
</svg>